<svg id="586299b2-a295-4850-9b02-b1a3acd78a87" data-name="Layer 1" xmlns="http://www.w3.org/2000/svg" viewBox="0 0 426.58 93.04"><defs><style>.\32 5d47cc7-f970-477e-943d-bd63ab1564b6{fill:#fff;}.\31 46b7c95-5e80-46f9-afe6-fc46703607dc{fill:#e2097e;}.eb20b131-6eca-4e79-8c34-f8ace14632c3{fill:#e6007e;}.f9a3d765-4227-4b45-b441-1ec7b91fe650{fill:none;stroke:#e6007e;stroke-miterlimit:10;}</style></defs><title>virtuoso-thin-logo</title><path class="25d47cc7-f970-477e-943d-bd63ab1564b6" d="M13.88,93.24,1.27,41H5.9L17.23,89.25h1.43L30,41h4.47L21.86,93.24Z" transform="translate(-1.27 -1)"/><path class="25d47cc7-f970-477e-943d-bd63ab1564b6" d="M62.88,93.24v-4h9V45h-9V41H85.15v4H76.29v44.3h8.86v4Z" transform="translate(-1.27 -1)"/><path class="25d47cc7-f970-477e-943d-bd63ab1564b6" d="M131.6,71.77c-2.88.16-4.74.24-5.59.24h-6.55V93.24h-4.38V41h11.73q9.74,0,14.28,3.35t4.55,11.82a16.25,16.25,0,0,1-2.27,9.09,16,16,0,0,1-7.31,5.59A185.23,185.23,0,0,1,146,93.24h-4.79A187,187,0,0,0,131.6,71.77ZM126.65,45h-7.19V68h6.39c4.89,0,8.65-.89,11.25-2.68S141,60.49,141,56.13s-1.15-7.32-3.47-8.86S131.6,45,126.65,45Z" transform="translate(-1.27 -1)"/><path class="25d47cc7-f970-477e-943d-bd63ab1564b6" d="M170.22,45V41h32.09V45H188.42V93.24H184V45Z" transform="translate(-1.27 -1)"/><path class="25d47cc7-f970-477e-943d-bd63ab1564b6" d="M226.89,78.15V41h4.39V77.59q0,12.3,11.25,12.3,5.67,0,8.46-3.4a13.54,13.54,0,0,0,2.79-8.9V41h4.39V78.15q0,7.74-4,11.81T242.37,94q-7.74,0-11.61-4.23T226.89,78.15Z" transform="translate(-1.27 -1)"/><path class="146b7c95-5e80-46f9-afe6-fc46703607dc" d="M282,66.58a62.32,62.32,0,0,1,.8-10.77,31.41,31.41,0,0,1,2.55-8.22q3.6-7.43,13.41-7.43,11.17.09,14.68,10.46a42.9,42.9,0,0,1,2.08,14.09,82.15,82.15,0,0,1-.8,12.88,33.85,33.85,0,0,1-2.55,8.62Q308.46,94,298.72,94t-13.33-7.83Q282,79.12,282,66.58Z" transform="translate(-1.27 -1)"/><path class="146b7c95-5e80-46f9-afe6-fc46703607dc" d="M353,68.14q-7.14-1.73-10.46-5t-3.31-9.62a11.93,11.93,0,0,1,4.35-9.82q4.35-3.51,11.22-3.51a42.25,42.25,0,0,1,14,2.48l-1.12,4.07a35.94,35.94,0,0,0-12.17-2.4q-5.55,0-8.5,2.36a8.2,8.2,0,0,0-2.95,6.82q0,4.47,2.39,6.79T356,64.47q7.14,1.88,10.34,4.94t3.19,9.9q0,6.82-4.59,10.77t-11.85,4a53.43,53.43,0,0,1-13.73-2.32l1-4.07a52.27,52.27,0,0,0,13.09,2.24,12,12,0,0,0,8.14-2.76,9.61,9.61,0,0,0,3.19-7.7q0-5-2.31-7.26T353,68.14Z" transform="translate(-1.27 -1)"/><path class="146b7c95-5e80-46f9-afe6-fc46703607dc" d="M394.33,66.58a63.34,63.34,0,0,1,.8-10.77,31.41,31.41,0,0,1,2.55-8.22q3.6-7.43,13.41-7.43,11.18.09,14.69,10.46a43.18,43.18,0,0,1,2.07,14.09,82.15,82.15,0,0,1-.8,12.88,33.85,33.85,0,0,1-2.55,8.62Q420.83,94,411.09,94q-9.57,0-13.33-7.83Q394.33,79.12,394.33,66.58Z" transform="translate(-1.27 -1)"/><polygon class="eb20b131-6eca-4e79-8c34-f8ace14632c3" points="313.93 67.5 313.93 12.5 423.93 12.5 423.93 67 426.43 67 426.43 0 311.43 0 311.43 67.5 313.93 67.5"/><line class="f9a3d765-4227-4b45-b441-1ec7b91fe650" x1="317.73" y1="16.67" x2="419.73" y2="16.67"/></svg>